<?xml version="1.0" standalone="no"?>
<!DOCTYPE svg PUBLIC "-//W3C//DTD SVG 20010904//EN"
 "http://www.w3.org/TR/2001/REC-SVG-20010904/DTD/svg10.dtd">
<svg version="1.0" xmlns="http://www.w3.org/2000/svg"  viewBox="0 0 240.000000 240.000000" preserveAspectRatio="xMidYMid meet">
    <g transform="translate(0.000000,240.000000) scale(0.100000,-0.100000)" fill="#f80" stroke="none">
        <path d="M0 1200 l0 -1200 1200 0 1200 0 0 1200 0 1200 -1200 0 -1200 0 0
			-1200z m1425 190 l80 0 -94 61 c-91 58 -94 59 -118 44 -24 -16 -53 -14 -53 3
			0 5 17 21 38 35 l39 25 149 -95 c82 -52 153 -99 158 -104 6 -5 -52 -9 -140 -9
			l-150 0 -126 80 -126 81 -111 -72 c-62 -39 -110 -73 -109 -74 2 -1 117 -75
			256 -164 138 -90 252 -166 252 -170 0 -3 -25 -21 -56 -40 -40 -23 -59 -30 -66
			-23 -13 13 4 38 33 47 10 4 19 10 19 14 0 4 -115 81 -255 172 -144 92 -251
			167 -246 172 5 5 71 49 146 97 l137 88 132 -84 131 -84 80 0z m-267 32 c2 -7
			-10 -20 -27 -29 -17 -10 -31 -21 -31 -24 0 -5 178 -122 444 -293 l69 -44 -74
			-48 c-41 -26 -107 -68 -148 -94 l-73 -47 -132 83 -131 84 -80 0 -80 0 94 -61
			c91 -58 94 -59 118 -44 24 16 53 14 53 -3 0 -5 -17 -21 -38 -35 l-39 -25 -149
			95 c-82 52 -153 99 -158 104 -6 5 52 9 140 9 l150 0 126 -80 126 -81 111 72
			112 72 -63 40 c-186 117 -448 290 -448 296 0 9 104 71 114 68 6 -2 12 -9 14 -15z" />
    </g>
</svg>
